<svg width="123" height="123" viewBox="0 0 123 123" fill="none" xmlns="http://www.w3.org/2000/svg">
<g clip-path="url(#clip0_15_2)">
<path d="M47.2644 120.695C36.003 117.959 27.736 113.142 18.5676 103.974C8.20374 93.61 3.02208 84.1815 5.32518 79.8782C7.78689 75.2784 12.0064 77.0688 16.3472 84.5551C22.0616 94.4102 30.2285 102.16 39.9583 106.96C47.8537 110.855 49.6892 111.221 61.2917 111.208C72.2379 111.196 75.0364 110.704 81.6104 107.635C92.245 102.669 101.789 93.3046 106.998 82.7231C110.959 74.6771 111.319 72.885 111.306 61.2498C111.294 50.3036 110.802 47.505 107.733 40.931C102.767 30.2964 93.4025 20.7527 82.8211 15.5434C74.781 11.5853 72.9721 11.2217 61.3197 11.2217C49.7003 11.2217 47.8478 11.5913 39.9583 15.4835C30.2285 20.2836 22.0616 28.0333 16.3472 37.8884C12.0064 45.3746 7.78689 47.1651 5.32518 42.5653C1.94921 36.2573 17.1181 16.0138 31.3014 7.89886C67.8128 -12.9909 114.545 9.60868 121.576 51.5551C124.859 71.1431 118.816 89.2614 104.088 103.99C88.2832 119.794 68.0453 125.744 47.2644 120.695ZM62.9197 83.6217C60.1506 80.8527 61.1484 77.9301 66.7193 72.4923L72.119 67.2217L37.1966 66.5551C5.82289 65.9561 2.12475 65.6513 0.803751 63.5551C-0.267917 61.8545 -0.267917 60.589 0.803751 58.8884C2.12475 56.7922 5.82289 56.4873 37.1966 55.8884L72.119 55.2217L66.7193 49.9511C63.7495 47.0523 61.3197 43.7223 61.3197 42.5511C61.3197 39.8328 63.9145 37.2217 66.6158 37.2217C69.2854 37.2217 90.653 58.6072 90.653 61.279C90.653 63.9041 69.2002 85.2217 66.5585 85.2217C65.4372 85.2217 63.7997 84.5017 62.9197 83.6217Z" fill="#FF8C0D"/>
</g>
<defs>
<clipPath id="clip0_15_2">
<rect width="122.446" height="122.447" fill="white"/>
</clipPath>
</defs>
</svg>
