<svg width="181" height="158" viewBox="0 0 181 158" fill="none" xmlns="http://www.w3.org/2000/svg">
<g clip-path="url(#clip0_12_7)">
<path d="M87.2333 155.811C86.3758 153.929 86.4981 150.896 87.7499 142.993C90.082 128.269 90.6566 128.207 93.1133 142.412C94.9973 153.306 94.3288 157.42 90.5872 157.956C89.0156 158.182 88.0247 157.548 87.2333 155.811ZM83.337 140.586C82.2699 139.3 82.6915 137.61 85.8433 130.537C87.9273 125.86 89.9082 122.203 90.2453 122.412C90.5824 122.62 92.629 126.422 94.7933 130.861C98.0981 137.639 98.5203 139.183 97.4286 140.498C95.2543 143.118 94.5169 142.322 93.2756 136.012C91.4289 126.626 88.9541 126.612 87.6059 135.98C86.7823 141.702 85.4534 143.136 83.337 140.586ZM73.3583 127.287C66.2998 120.503 66.234 120.391 66.234 115.155V109.871L56.9406 101.116C51.8292 96.3004 42.942 87.7787 37.1913 82.1785L26.7353 71.9965L26.2714 66.0918L25.8075 60.187L28.9305 63.1277C30.6482 64.7451 32.3168 65.8052 32.6384 65.4835C32.9601 65.1619 28.8953 60.674 23.6055 55.5104L13.9877 46.1222L13.9889 39.3409C13.9895 35.6112 14.3077 32.5596 14.6958 32.5596C15.0839 32.5596 16.8924 34.0046 18.7145 35.7706C20.5368 37.5366 22.0277 38.475 22.0277 37.8558C22.0277 37.2367 17.499 32.5413 11.964 27.4217C0.90757 17.1952 -0.45099 14.7097 0.103637 5.72366L0.426827 0.487333L19.1343 17.4551L37.8417 34.4229L38.3011 39.962C38.5702 43.2072 39.8567 47.6139 41.4075 50.6029C43.3867 54.4174 44.0376 57.1216 43.9875 61.3207C43.923 66.7192 44.1085 67.1278 48.7774 71.8677C53.1468 76.3036 53.5056 77.0049 52.3513 78.8531C51.6455 79.9831 51.3271 81.7235 51.6436 82.7207C51.9601 83.7179 58.4208 90.1318 66.0008 96.9739C73.5808 103.816 81.9306 111.448 84.556 113.935L89.3293 118.456L85.8674 125.974C83.9633 130.11 81.9729 133.637 81.4441 133.814C80.9153 133.99 77.2767 131.053 73.3583 127.287ZM95.2048 126.2L91.6845 118.373L108.08 103.416C131.002 82.5046 130.207 83.4203 128.758 79.582C127.619 76.5636 127.768 76.2044 132.064 71.6122C136.342 67.0391 136.562 66.5122 136.562 60.8679C136.562 56.6425 137.095 54.2423 138.411 52.5366C140.993 49.19 142.59 44.0539 142.59 39.0986C142.59 34.9504 142.823 34.6737 157.912 20.8419C166.339 13.1174 174.981 5.26792 177.117 3.39866L181 0L180.62 8.37137L180.24 16.7427L169.201 27.0739C163.13 32.7561 158.455 37.699 158.811 38.0582C159.167 38.4174 161.089 37.2803 163.081 35.5314L166.703 32.3515V38.7621C166.703 42.8257 166.153 45.958 165.201 47.3176C163.569 49.6465 151.934 61.0194 148.953 63.1991C147.942 63.9386 147.458 64.8867 147.877 65.306C148.296 65.7253 149.991 64.7735 151.643 63.1909L154.647 60.3134V65.4295C154.647 71.4237 152.973 73.7569 140.079 85.7397C135.658 89.8478 128.085 96.9913 123.25 101.614L114.459 110.019V115.329C114.459 120.578 114.381 120.713 107.524 127.333C103.71 131.015 100.169 134.028 99.6569 134.028C99.1444 134.028 97.1409 130.505 95.2048 126.2ZM53.8572 109.041C46.5581 101.582 45.1355 99.6024 45.1355 96.9018C45.1355 95.127 45.5327 93.8255 46.0181 94.0097C46.5035 94.1939 50.7986 97.9132 55.5626 102.275C63.5737 109.609 64.2246 110.496 64.2246 114.079C64.2246 116.21 63.8543 117.953 63.4017 117.953C62.9491 117.953 58.6541 113.943 53.8572 109.041ZM116.483 114.186C116.497 110.742 117.265 109.708 125.447 102.13C130.369 97.572 134.657 93.8423 134.977 93.8423C135.296 93.8423 135.558 95.3026 135.558 97.0874C135.558 99.8239 134.183 101.714 126.787 109.143C121.964 113.989 117.669 117.953 117.243 117.953C116.817 117.953 116.475 116.258 116.483 114.186ZM91.3504 114.739C91.35 114.02 92.3183 108.46 93.5021 102.382C95.9719 89.7019 98.4185 85.8052 103.91 85.8052C106.039 85.8052 107.92 84.898 109.75 82.9875C113.087 79.5045 113.113 78.2058 109.938 73.5338C105.238 66.6178 105.679 65.8228 123.467 49.1365C132.29 40.8605 140.026 33.9168 140.658 33.706C142.146 33.2099 140.95 42.5835 138.85 47.8688C138.024 49.9482 134.602 54.1647 131.183 57.3152C120.518 67.1442 119.591 69.8201 124.506 76.6041C126.164 78.8924 127.52 81.3759 127.52 82.123C127.52 82.8701 125.153 85.4735 122.261 87.9083C119.368 90.3432 111.23 97.6699 104.176 104.19C97.1225 110.71 91.3509 115.457 91.3504 114.739ZM71.0062 98.9275C61.198 89.9599 53.1812 82.3217 53.1913 81.9536C53.2014 81.5855 54.5577 79.2949 56.2054 76.8635C61.0804 69.6694 60.5089 67.6794 50.807 58.065C41.8186 49.1576 39.6336 44.8385 40.2903 37.2763L40.6144 33.5442L56.9406 48.7275C72.0411 62.7709 73.2668 64.175 73.2668 67.4294C73.2668 69.7168 72.3879 71.9923 70.7551 73.9328C67.5994 77.6829 67.6115 78.8724 70.8444 82.7142C72.7584 84.9888 74.3009 85.8052 76.6845 85.8052C82.3725 85.8052 85.0436 89.8255 87.3871 101.914C88.499 107.65 89.2807 112.993 89.1241 113.787C88.9514 114.664 81.8299 108.823 71.0062 98.9275ZM88.5416 98.8468C86.9454 89.5387 86.8884 89.8237 90.3465 89.8237C92.4663 89.8237 93.3606 90.311 93.3606 91.466C93.3606 94.5195 91.0085 105.898 90.3774 105.898C90.0328 105.898 89.2067 102.725 88.5416 98.8468ZM87.3325 85.8052C85.951 84.7247 83.3247 83.8305 81.4962 83.8183C79.5403 83.8051 78.4273 83.3823 78.7926 82.7913C79.1341 82.2387 80.4904 81.7866 81.8067 81.7866C83.1229 81.7866 84.4792 81.3346 84.8207 80.782C85.1622 80.2295 84.7368 79.7774 83.8753 79.7774C81.9091 79.7774 81.8245 78.169 83.7519 77.4294C84.5455 77.1249 86.3413 77.7775 87.7426 78.8797L90.2904 80.8837L93.3477 78.6235C96.2245 76.4966 96.5057 76.464 98.1121 78.0703C99.7186 79.6767 99.6845 79.7774 97.5353 79.7774C96.2685 79.7774 95.5279 80.2248 95.8723 80.782C96.2138 81.3346 97.5702 81.7866 98.8864 81.7866C100.203 81.7866 101.559 82.2387 101.9 82.7913C102.264 83.3799 101.21 83.7959 99.3553 83.7959C97.614 83.7959 95.0397 84.7001 93.6347 85.8052C90.5253 88.2509 90.4593 88.2509 87.3325 85.8052ZM88.2094 77.1119C86.4992 75.0513 85.771 61.1697 87.1899 57.6754C88.0329 55.5994 88.2208 56.3397 88.2735 61.9451C88.3306 68.0354 88.5419 68.7264 90.3465 68.7264C92.1498 68.7264 92.3559 68.0567 92.3559 62.1963C92.3559 53.5012 94.3127 53.7253 94.549 62.4475C94.8184 72.3904 94.4854 74.9656 92.6706 76.9708C90.6551 79.1977 89.9589 79.2198 88.2094 77.1119ZM50.9676 71.2479C48.9258 69.3493 46.7783 66.9047 46.1954 65.8156C44.9653 63.5174 44.7617 56.6708 45.9233 56.6708C47.703 56.6708 57.1918 67.4143 57.1918 69.4293C57.1918 72.0063 56.2204 74.7647 55.3261 74.727C54.9708 74.7121 53.0095 73.1464 50.9676 71.2479ZM124.603 72.9254C122.701 69.3723 123.348 67.7487 128.982 61.9318C133.467 57.3021 134.583 56.5849 135.121 57.9866C136.461 61.4788 134.561 66.2912 130.121 70.6485C125.895 74.7953 125.656 74.8939 124.603 72.9254Z" fill="#FF8C0D"/>
</g>
<mask id="mask0_12_7" style="mask-type:alpha" maskUnits="userSpaceOnUse" x="0" y="0" width="181" height="158">
<g clip-path="url(#clip1_12_7)">
<path d="M87.2333 155.811C86.3758 153.929 86.4981 150.896 87.7499 142.993C90.082 128.269 90.6566 128.207 93.1133 142.412C94.9973 153.306 94.3288 157.42 90.5872 157.956C89.0156 158.182 88.0247 157.548 87.2333 155.811ZM83.337 140.586C82.2699 139.3 82.6915 137.61 85.8433 130.537C87.9273 125.86 89.9082 122.203 90.2453 122.412C90.5824 122.62 92.629 126.422 94.7933 130.861C98.0981 137.639 98.5203 139.183 97.4286 140.498C95.2543 143.118 94.5169 142.322 93.2756 136.012C91.4289 126.626 88.9541 126.612 87.6059 135.98C86.7823 141.702 85.4534 143.136 83.337 140.586ZM73.3583 127.287C66.2998 120.503 66.234 120.391 66.234 115.155V109.871L56.9406 101.116C51.8292 96.3004 42.942 87.7787 37.1913 82.1785L26.7353 71.9965L26.2714 66.0918L25.8075 60.187L28.9305 63.1277C30.6482 64.7451 32.3168 65.8052 32.6384 65.4835C32.9601 65.1619 28.8953 60.674 23.6055 55.5104L13.9877 46.1222L13.9889 39.3409C13.9895 35.6112 14.3077 32.5596 14.6958 32.5596C15.0839 32.5596 16.8924 34.0046 18.7145 35.7706C20.5368 37.5366 22.0277 38.475 22.0277 37.8558C22.0277 37.2367 17.499 32.5413 11.964 27.4217C0.90757 17.1952 -0.45099 14.7097 0.103637 5.72366L0.426827 0.487333L19.1343 17.4551L37.8417 34.4229L38.3011 39.962C38.5702 43.2072 39.8567 47.6139 41.4075 50.6029C43.3867 54.4174 44.0376 57.1216 43.9875 61.3207C43.923 66.7192 44.1085 67.1278 48.7774 71.8677C53.1468 76.3036 53.5056 77.0049 52.3513 78.8531C51.6455 79.9831 51.3271 81.7235 51.6436 82.7207C51.9601 83.7179 58.4208 90.1318 66.0008 96.9739C73.5808 103.816 81.9306 111.448 84.556 113.935L89.3293 118.456L85.8674 125.974C83.9633 130.11 81.9729 133.637 81.4441 133.814C80.9153 133.99 77.2767 131.053 73.3583 127.287ZM95.2048 126.2L91.6845 118.373L108.08 103.416C131.002 82.5046 130.207 83.4203 128.758 79.582C127.619 76.5636 127.768 76.2044 132.064 71.6122C136.342 67.0391 136.562 66.5122 136.562 60.8679C136.562 56.6425 137.095 54.2423 138.411 52.5366C140.993 49.19 142.59 44.0539 142.59 39.0986C142.59 34.9504 142.823 34.6737 157.912 20.8419C166.339 13.1174 174.981 5.26792 177.117 3.39866L181 0L180.62 8.37137L180.24 16.7427L169.201 27.0739C163.13 32.7561 158.455 37.699 158.811 38.0582C159.167 38.4174 161.089 37.2803 163.081 35.5314L166.703 32.3515V38.7621C166.703 42.8257 166.153 45.958 165.201 47.3176C163.569 49.6465 151.934 61.0194 148.953 63.1991C147.942 63.9386 147.458 64.8867 147.877 65.306C148.296 65.7253 149.991 64.7735 151.643 63.1909L154.647 60.3134V65.4295C154.647 71.4237 152.973 73.7569 140.079 85.7397C135.658 89.8478 128.085 96.9913 123.25 101.614L114.459 110.019V115.329C114.459 120.578 114.381 120.713 107.524 127.333C103.71 131.015 100.169 134.028 99.6569 134.028C99.1444 134.028 97.1409 130.505 95.2048 126.2ZM53.8572 109.041C46.5581 101.582 45.1355 99.6024 45.1355 96.9018C45.1355 95.127 45.5327 93.8255 46.0181 94.0097C46.5035 94.1939 50.7986 97.9132 55.5626 102.275C63.5737 109.609 64.2246 110.496 64.2246 114.079C64.2246 116.21 63.8543 117.953 63.4017 117.953C62.9491 117.953 58.6541 113.943 53.8572 109.041ZM116.483 114.186C116.497 110.742 117.265 109.708 125.447 102.13C130.369 97.572 134.657 93.8423 134.977 93.8423C135.296 93.8423 135.558 95.3026 135.558 97.0874C135.558 99.8239 134.183 101.714 126.787 109.143C121.964 113.989 117.669 117.953 117.243 117.953C116.817 117.953 116.475 116.258 116.483 114.186ZM91.3504 114.739C91.35 114.02 92.3183 108.46 93.5021 102.382C95.9719 89.7019 98.4185 85.8052 103.91 85.8052C106.039 85.8052 107.92 84.898 109.75 82.9875C113.087 79.5045 113.113 78.2058 109.938 73.5338C105.238 66.6178 105.679 65.8228 123.467 49.1365C132.29 40.8605 140.026 33.9168 140.658 33.706C142.146 33.2099 140.95 42.5835 138.85 47.8688C138.024 49.9482 134.602 54.1647 131.183 57.3152C120.518 67.1442 119.591 69.8201 124.506 76.6041C126.164 78.8924 127.52 81.3759 127.52 82.123C127.52 82.8701 125.153 85.4735 122.261 87.9083C119.368 90.3432 111.23 97.6699 104.176 104.19C97.1225 110.71 91.3509 115.457 91.3504 114.739ZM71.0062 98.9275C61.198 89.9599 53.1812 82.3217 53.1913 81.9536C53.2014 81.5855 54.5577 79.2949 56.2054 76.8635C61.0804 69.6694 60.5089 67.6794 50.807 58.065C41.8186 49.1576 39.6336 44.8385 40.2903 37.2763L40.6144 33.5442L56.9406 48.7275C72.0411 62.7709 73.2668 64.175 73.2668 67.4294C73.2668 69.7168 72.3879 71.9923 70.7551 73.9328C67.5994 77.6829 67.6115 78.8724 70.8444 82.7142C72.7584 84.9888 74.3009 85.8052 76.6845 85.8052C82.3725 85.8052 85.0436 89.8255 87.3871 101.914C88.499 107.65 89.2807 112.993 89.1241 113.787C88.9514 114.664 81.8299 108.823 71.0062 98.9275ZM88.5416 98.8468C86.9454 89.5387 86.8884 89.8237 90.3465 89.8237C92.4663 89.8237 93.3606 90.311 93.3606 91.466C93.3606 94.5195 91.0085 105.898 90.3774 105.898C90.0328 105.898 89.2067 102.725 88.5416 98.8468ZM87.3325 85.8052C85.951 84.7247 83.3247 83.8305 81.4962 83.8183C79.5403 83.8051 78.4273 83.3823 78.7926 82.7913C79.1341 82.2387 80.4904 81.7866 81.8067 81.7866C83.1229 81.7866 84.4792 81.3346 84.8207 80.782C85.1622 80.2295 84.7368 79.7774 83.8753 79.7774C81.9091 79.7774 81.8245 78.169 83.7519 77.4294C84.5455 77.1249 86.3413 77.7775 87.7426 78.8797L90.2904 80.8837L93.3477 78.6235C96.2245 76.4966 96.5057 76.464 98.1121 78.0703C99.7186 79.6767 99.6845 79.7774 97.5353 79.7774C96.2685 79.7774 95.5279 80.2248 95.8723 80.782C96.2138 81.3346 97.5702 81.7866 98.8864 81.7866C100.203 81.7866 101.559 82.2387 101.9 82.7913C102.264 83.3799 101.21 83.7959 99.3553 83.7959C97.614 83.7959 95.0397 84.7001 93.6347 85.8052C90.5253 88.2509 90.4593 88.2509 87.3325 85.8052ZM88.2094 77.1119C86.4992 75.0513 85.771 61.1697 87.1899 57.6754C88.0329 55.5994 88.2208 56.3397 88.2735 61.9451C88.3306 68.0354 88.5419 68.7264 90.3465 68.7264C92.1498 68.7264 92.3559 68.0567 92.3559 62.1963C92.3559 53.5012 94.3127 53.7253 94.549 62.4475C94.8184 72.3904 94.4854 74.9656 92.6706 76.9708C90.6551 79.1977 89.9589 79.2198 88.2094 77.1119ZM50.9676 71.2479C48.9258 69.3493 46.7783 66.9047 46.1954 65.8156C44.9653 63.5174 44.7617 56.6708 45.9233 56.6708C47.703 56.6708 57.1918 67.4143 57.1918 69.4293C57.1918 72.0063 56.2204 74.7647 55.3261 74.727C54.9708 74.7121 53.0095 73.1464 50.9676 71.2479ZM124.603 72.9254C122.701 69.3723 123.348 67.7487 128.982 61.9318C133.467 57.3021 134.583 56.5849 135.121 57.9866C136.461 61.4788 134.561 66.2912 130.121 70.6485C125.895 74.7953 125.656 74.8939 124.603 72.9254Z" fill="#FF8C0D"/>
</g>
</mask>
<g mask="url(#mask0_12_7)">
<path d="M81.8399 147.231V82.8671H98.1126V147.231H81.8399ZM57.7944 123.185V106.913H122.158V123.185H57.7944Z" fill="#9D5500"/>
</g>
<defs>
<clipPath id="clip0_12_7">
<rect width="181" height="158" fill="white"/>
</clipPath>
<clipPath id="clip1_12_7">
<rect width="181" height="158" fill="white"/>
</clipPath>
</defs>
</svg>
