<svg width="108" height="119" viewBox="0 0 108 119" fill="none" xmlns="http://www.w3.org/2000/svg">
<g clip-path="url(#clip0_16_4)">
<path d="M0 115.712C0 102.177 11.2494 82.8563 24.1097 74.3039L31.8883 69.131L25.8531 62.1213C3.11553 35.7125 24.8648 -4.36066 59.3591 0.386225C88.3729 4.37892 101.482 39.7439 82.2343 62.099L76.1799 69.131L83.9585 74.3039C93.8169 80.86 102.039 92.0381 105.426 103.491C109.386 116.88 109.009 119 102.665 119C98.8656 119 97.2614 118.123 97.2614 116.045C97.2614 108.692 92.3429 97.9985 85.4392 90.3426L77.9154 81.999L73.0466 87.8084C63.1371 99.6323 44.9925 99.7055 35.1499 87.9614L30.4093 82.305L23.3768 89.1995C16.7716 95.6752 10.8068 108.253 10.8068 115.705C10.8068 118.161 9.42995 119 5.40341 119C1.38053 119 0 118.16 0 115.712ZM62.8769 82.5974C68.0987 77.713 65.4775 75.6551 54.0341 75.6551C42.6625 75.6551 39.933 77.7173 44.8158 82.6197C49.7029 87.5263 57.6179 87.5165 62.8769 82.5974ZM69.7922 59.6479C77.371 54.2297 81.6666 44.3585 80.5959 34.8212C78.8892 19.6186 66.1583 9.26845 51.2419 10.9565C16.5363 14.884 21.2509 67.0282 56.0554 64.1945C60.7325 63.8137 66.752 61.8214 69.7922 59.6479Z" fill="#FF8C0D"/>
</g>
<defs>
<clipPath id="clip0_16_4">
<rect width="108" height="119" fill="white"/>
</clipPath>
</defs>
</svg>
